Coordinates
version=1
nRows=10
nColumns=40
inDegrees=yes

Units are S.I. units (second, meters, Newtons, ...)
If the header above contains a line with 'inDegrees', this indicates whether rotational values are in degrees (yes) or radians (no).

endheader
time	pelvis_tilt	pelvis_list	pelvis_rotation	pelvis_tx	pelvis_ty	pelvis_tz	hip_flexion_r	hip_adduction_r	hip_rotation_r	knee_angle_r	knee_angle_r_beta	ankle_angle_r	subtalar_angle_r	mtp_angle_r	hip_flexion_l	hip_adduction_l	hip_rotation_l	knee_angle_l	knee_angle_l_beta	ankle_angle_l	subtalar_angle_l	mtp_angle_l	lumbar_extension	lumbar_bending	lumbar_rotation	arm_flex_r	arm_add_r	arm_rot_r	elbow_flex_r	pro_sup_r	wrist_flex_r	wrist_dev_r	arm_flex_l	arm_add_l	arm_rot_l	elbow_flex_l	pro_sup_l	wrist_flex_l	wrist_dev_l
      4.29999999999999982236	      6.42275433280226604182	     -5.66780584962355327150	   -179.48266686547637505100	      0.39921106214991269878	      0.62098033167044186520	     -0.96596047053021161233	     71.20057727295971972126	    -49.73727109782248589909	      6.40456557325557351845	     66.79261672131322313817	      1.16575107780953568515	      1.13830605573701038047	      0.00000000000000000000	      0.00000000000000000000	     57.33230571690079102609	    -48.23722101578839982494	    -18.37527647845888267852	     64.35841004073776616679	      1.12326615655945194483	     -1.81497755231525359498	      0.00000000000000000000	      0.00000000000000000000	    -60.98246391006374267363	     -2.63918472329055431302	     -2.46168262370563972752	     59.89702728462393110931	     -4.06189682071831104082	     19.04345610257784571218	      2.16100735978606284249	     77.51722385455612140959	      0.00000000000000000000	      0.00000000000000000000	     55.83991289068844565691	     -6.89035148607616854122	      8.04214206126949271436	      1.21175085121917791575	      6.06329944543318433148	      0.00000000000000000000	      0.00000000000000000000
      4.30499999999999971578	      6.38220739331381370363	     -5.46149168930886741435	   -179.45848335784725691155	      0.39894198352580273470	      0.62083606849803196770	     -0.96580582201316089730	     70.84449720155798502219	    -49.73601302553603886736	      5.96019302579308885015	     66.76304396944779284695	      1.16523493592060845003	      1.24659698780877037372	      0.00000000000000000000	      0.00000000000000000000	     57.64791164827156677575	    -48.25621908942333249115	    -17.71724706175359287386	     64.43049084774806090081	      1.12452420396927621482	     -1.67920169639012706320	      0.00000000000000000000	      0.00000000000000000000	    -60.95369700288850367542	     -2.42023259739590912432	     -2.43080559062163148454	     59.92990676661528226532	     -3.83836521970259925141	     19.40339848332902761285	      2.11796221202097001424	     76.01260364620146958714	      0.00000000000000000000	      0.00000000000000000000	     55.80901691309873058344	     -6.99948672679120331708	      7.65281890854717339323	      1.17016089484605911863	      6.33640146509453927592	      0.00000000000000000000	      0.00000000000000000000
      4.30999999999999960920	      6.28809327099594650434	     -5.43979122029744566191	   -179.48078613297417405192	      0.39861193003947631430	      0.62088914997064004186	     -0.96575058723761630919	     70.70398321779038042223	    -49.73879152333402942077	      5.89404141322553254412	     66.75726892771901077595	      1.16513414242800128484	      1.28090718044133944353	      0.00000000000000000000	      0.00000000000000000000	     57.60016757595573011486	    -48.18930898284383346208	    -17.44508692316226117214	     64.48945917361744761820	      1.12555339541008603277	     -1.66964974799352194879	      0.00000000000000000000	      0.00000000000000000000	    -60.99985102588313168326	     -2.37841166583636942633	     -2.43051522066777447861	     59.89554164957311854778	     -3.80964414597674583263	     19.53931764107572988109	      2.15854889792290638439	     75.04586502467907394021	      0.00000000000000000000	      0.00000000000000000000	     55.80871957801697647028	     -7.01533405403965648617	      7.35794997641999604099	      1.20147167199591975439	      6.23125083992652140097	      0.00000000000000000000	      0.00000000000000000000
      4.31500000000000039080	      6.29954962548054808735	     -5.46966112680444194183	   -179.49096450338984709560	      0.39834708013315356379	      0.62073632011905233163	     -0.96562693092983231669	     70.76630595507258192356	    -49.73477503015860179403	      6.00611799183515859824	     66.78178762638292198517	      1.16556207444799087014	      1.31032737437819357673	      0.00000000000000000000	      0.00000000000000000000	     57.64649519506449593109	    -48.10243017953661137653	    -17.21507053563241740335	     64.54454176604765791581	      1.12651476800852723414	     -1.62119360878946605631	      0.00000000000000000000	      0.00000000000000000000	    -60.93028639289001091583	     -2.37266490015239250866	     -2.28213254831883061158	     59.87768501385308184126	     -4.11711935285622665504	     18.46610497253244531635	      2.22207150869241276681	     78.02593565954930454609	      0.00000000000000000000	      0.00000000000000000000	     55.80792817741266276244	     -6.72844629610322897406	      8.27904119810222560716	      1.20167105899635151545	      5.23302352580586038755	      0.00000000000000000000	      0.00000000000000000000
      4.32000000000000028422	      6.02584728300791194755	     -5.32161362177085806024	   -179.50313768391524149592	      0.39793688226820911336	      0.62126253080682247720	     -0.96550322000942701006	     70.18834443753304697111	    -49.74082046399643530776	      5.63518591150678016533	     66.72095247831612141454	      1.16450030081328681497	      1.33484013716713589837	      0.00000000000000000000	      0.00000000000000000000	     57.50112660433913447378	    -48.12870364601162265217	    -16.83996657391490714417	     64.54881619266717507344	      1.12658937082667276464	     -1.58860228557989158205	      0.00000000000000000000	      0.00000000000000000000	    -61.18215449312791776038	     -2.21874310207515179627	     -2.26613978079863498394	     59.84680084016545009717	     -3.98591507624351804040	     20.00598712253984245990	      2.22998048330310538745	     75.84703605017637073615	      0.00000000000000000000	      0.00000000000000000000	     55.92556035949300508037	     -6.84288591238415477847	      7.16170824181573717482	      1.20594211316467925244	      5.66046341665395580378	      0.00000000000000000000	      0.00000000000000000000
      4.32500000000000017764	      6.47425633934849109608	     -4.87350820626417480241	   -179.27662931482115027393	      0.39819548925508380099	      0.61997679689272355841	     -0.96492912827051413593	     70.22778258814317098313	    -49.71803944716477730026	      5.01235979409037302190	     66.83999139236325959246	      1.16657792180140806870	      1.21351213866604101810	      0.00000000000000000000	      0.00000000000000000000	     59.04139161212284392377	    -48.11721628804436790006	    -15.37240316743684331868	     64.82762548455720263973	      1.13145551095530771946	     -2.03765807416146715880	      0.00000000000000000000	      0.00000000000000000000	    -60.57205615095722350816	     -1.72102640356610625538	     -1.89501957057963266173	     59.70323239401638204527	     -4.03731859483115496090	     20.25420565423423013840	      2.28357774988584827369	     73.65497905209214479783	      0.00000000000000000000	      0.00000000000000000000	     55.84750132940094857759	     -6.69011824844454050520	      6.86335025680909094348	      1.01366332028060801562	      7.81973747045536082823	      0.00000000000000000000	      0.00000000000000000000
      4.33000000000000007105	      5.87371297117835666768	     -5.35780652243269628343	   -179.52431866024866735643	      0.39745444785739397764	      0.62149644981542406796	     -0.96526142554288463238	     70.01931685665961424547	    -49.74244554493115799687	      5.74206520541186105078	     66.68353176872037124667	      1.16384718622240845853	      1.30321714929559173690	      0.00000000000000000000	      0.00000000000000000000	     57.34300745358179085542	    -48.01010113341265395093	    -16.58042253886829797693	     64.59103360814241057142	      1.12732620372839797973	     -1.56865572157648203167	      0.00000000000000000000	      0.00000000000000000000	    -61.26218691502035085250	     -2.16066645264330681186	     -2.28147236204100156698	     59.79559172169334146929	     -3.97981121864423448287	     19.89519254736541498119	      2.34952784196941255601	     74.25365313654513954589	      0.00000000000000000000	      0.00000000000000000000	     56.13337270918996324554	     -6.79830289034848878060	      6.31257436979045039038	      1.17752144219551913018	      5.71912003772122101708	      0.00000000000000000000	      0.00000000000000000000
      4.33499999999999996447	      5.89905297130248040816	     -5.36901164361278127046	   -179.50743559850661767996	      0.39723819386203912396	      0.62138913795759320724	     -0.96521824472947281848	     70.08009188956476975818	    -49.74017447357147148068	      5.82315729319558261778	     66.72537851260941010878	      1.16457754968451099309	      1.30657629689549148466	      0.00000000000000000000	      0.00000000000000000000	     57.39290343224730150951	    -47.96090259357019647268	    -16.46772220420468357815	     64.60315477069360667883	      1.12753775792408572620	     -1.56622667844949847726	      0.00000000000000000000	      0.00000000000000000000	    -61.21059275863574100640	     -2.11539714186442928678	     -2.28566871703299367979	     59.93161101842058258171	     -4.11175304867742763548	     18.93019968692231103091	      2.21557958219265405120	     78.75574755080080535663	      0.00000000000000000000	      0.00000000000000000000	     56.05541665440492948846	     -6.75092412222747384476	      7.09954666364790831778	      1.21566053216786684743	      5.38127674652278731315	      0.00000000000000000000	      0.00000000000000000000
      4.33999999999999985789	      5.82257977563672213250	     -5.46185151147412284445	   -179.52387795411806337142	      0.39704445329128562614	      0.62154369217750127241	     -0.96520090692794058285	     70.11048698846560967013	    -49.74213703914723083699	      6.03739086196618401914	     66.73297809900356014623	      1.16471018748887855665	      1.30724508165537378623	      0.00000000000000000000	      0.00000000000000000000	     57.17870415319701038470	    -47.90567305237065909296	    -16.60253064361280550543	     64.58068837264293904354	      1.12714564530703809098	     -1.59840282846520964632	      0.00000000000000000000	      0.00000000000000000000	    -61.26960821650989430509	     -2.14175377570064551236	     -2.43336780325781454337	     59.93793966373797843517	     -3.94186875289726534888	     19.45814225503490391134	      2.17199800254273256428	     76.90568148496214462284	      0.00000000000000000000	      0.00000000000000000000	     56.09970537528919010128	     -6.85106340309697969815	      6.66806975614825248044	      1.20244932342889754295	      6.11477889813510522288	      0.00000000000000000000	      0.00000000000000000000
      4.34499999999999975131	      5.75482814936477904411	     -5.50260484264029336998	   -179.52938048199786180703	      0.39684789937950876171	      0.62170149600309587701	     -0.96526046427354095236	     70.08090351348847946156	    -49.73805526474821192551	      6.13382828452146000586	     66.75471841997034516680	      1.16508962767018942053	      1.32592151906264055228	      0.00000000000000000000	      0.00000000000000000000	     57.01929397854497949538	    -47.88558853883856158973	    -16.69928683989153839207	     64.54817505678151690063	      1.12657818089451522425	     -1.59958061034130927247	      0.00000000000000000000	      0.00000000000000000000	    -61.31818312212936206151	     -2.14184770536313129341	     -2.44121013225989447193	     59.89473240125600028705	     -3.92147337777066518072	     19.72364442052750987955	      2.21301073280452254011	     75.64862189427070404690	      0.00000000000000000000	      0.00000000000000000000	     56.16419559926076487955	     -6.80459267038213688750	      6.38919833532930248055	      1.18468525142759206759	      6.20958129163525818228	      0.00000000000000000000	      0.00000000000000000000
